<svg width="753" height="143" viewBox="0 0 753 143" fill="none" xmlns="http://www.w3.org/2000/svg">
<rect x="32" y="53.8645" width="27" height="89" rx="13.5" fill="url(#paint0_linear_244_13)"/>
<rect y="46.8645" width="25" height="96" rx="12.5" fill="url(#paint1_linear_244_13)"/>
<rect x="66" y="37.8645" width="25" height="105" rx="12.5" fill="url(#paint2_linear_244_13)"/>
<path d="M7.06982 35.6843L41.7811 46.3891C42.8526 46.7195 44.0189 46.4249 44.8048 45.6252L82.7022 7.06667M82.7022 7.06667V29.552M82.7022 7.06667L61.0481 4.00049" stroke="url(#paint3_linear_244_13)" stroke-width="8" stroke-linecap="round"/>
<path d="M726.249 88.3526L728.177 98.8525L729.677 100.245V141.281H713.82V88.3526H726.249ZM752.07 86.9597L750.57 101.638H746.177C743.677 101.638 741.07 101.995 738.356 102.71C735.641 103.424 732.213 104.495 728.07 105.924L726.999 97.0311C730.713 93.7454 734.463 91.2454 738.249 89.5311C742.034 87.8169 745.713 86.9597 749.284 86.9597H752.07Z" fill="black"/>
<path d="M678.415 86.9597C687.343 86.9597 693.736 88.4954 697.593 91.5668C701.522 94.5668 703.486 99.0668 703.486 105.067C703.557 109.924 702.343 113.567 699.843 115.995C697.343 118.352 693.022 119.531 686.879 119.531H657.308V110.638H682.486C684.915 110.638 686.45 110.138 687.093 109.138C687.807 108.067 688.165 106.602 688.165 104.745C688.093 102.245 687.343 100.531 685.915 99.6025C684.557 98.6025 682.236 98.1025 678.95 98.1025C676.022 98.1025 673.736 98.4954 672.093 99.2811C670.45 100.067 669.307 101.567 668.665 103.781C668.022 105.995 667.7 109.21 667.7 113.424C667.7 117.852 668.093 121.281 668.879 123.71C669.665 126.067 670.986 127.71 672.843 128.638C674.772 129.567 677.415 130.031 680.772 130.031C683.2 130.031 686.2 129.96 689.772 129.817C693.414 129.602 697.057 129.281 700.7 128.852L702.2 138.602C700.129 139.602 697.772 140.388 695.129 140.959C692.486 141.531 689.772 141.924 686.986 142.138C684.2 142.424 681.522 142.567 678.95 142.567C672.236 142.567 666.807 141.602 662.665 139.674C658.593 137.674 655.629 134.638 653.772 130.567C651.986 126.495 651.093 121.281 651.093 114.924C651.093 107.995 652.022 102.495 653.879 98.4239C655.736 94.3525 658.665 91.424 662.665 89.6383C666.665 87.8526 671.915 86.9597 678.415 86.9597Z" fill="black"/>
<path d="M630.077 73.6742V124.353C630.077 126.281 630.505 127.674 631.362 128.531C632.291 129.317 633.791 129.71 635.862 129.71H642.719L644.434 140.424C643.148 140.852 641.577 141.21 639.719 141.495C637.862 141.852 636.005 142.102 634.148 142.245C632.291 142.46 630.719 142.567 629.434 142.567C624.648 142.567 620.898 141.281 618.184 138.71C615.541 136.138 614.22 132.531 614.22 127.888L614.112 73.6742H630.077ZM644.862 88.3527V98.7455H604.898V88.8884L615.184 88.3527H644.862Z" fill="black"/>
<path d="M588.259 64.0315C589.545 64.0315 591.223 64.0672 593.295 64.1386C595.438 64.2101 597.58 64.3529 599.723 64.5672C601.938 64.7101 603.83 64.9243 605.402 65.2101L604.009 75.3886H593.938C591.223 75.3886 589.33 75.9243 588.259 76.9957C587.188 78.0671 586.652 79.9243 586.652 82.5671V141.281H570.795V80.5314C570.795 77.1743 571.331 74.2814 572.402 71.8529C573.545 69.4243 575.402 67.5315 577.973 66.1743C580.545 64.7458 583.973 64.0315 588.259 64.0315ZM601.438 88.3528V98.7456H561.581V88.8885L571.116 88.3528H601.438Z" fill="black"/>
<path d="M552.649 88.3527V141.281H536.899V88.3527H552.649ZM548.256 64.9957C551.399 64.9957 552.97 66.6029 552.97 69.8171V75.4957C552.97 78.7099 551.399 80.3171 548.256 80.3171H541.399C538.256 80.3171 536.684 78.7099 536.684 75.4957V69.8171C536.684 66.6029 538.256 64.9957 541.399 64.9957H548.256Z" fill="black"/>
<path d="M496.17 67.3528V122.638C496.17 124.424 496.67 125.781 497.67 126.71C498.67 127.638 500.099 128.102 501.956 128.102H527.777L528.527 140.424C523.456 140.995 518.135 141.317 512.563 141.388C507.063 141.531 501.563 141.602 496.063 141.602C490.706 141.602 486.635 140.174 483.849 137.317C481.135 134.388 479.778 130.674 479.778 126.174V67.3528H496.17Z" fill="black"/>
<path d="M451.721 86.9597C456.507 86.9597 460.15 88.2097 462.65 90.7097C465.15 93.2097 466.4 96.8525 466.4 101.638V141.281H450.65V106.567C450.65 104.352 450.221 102.781 449.364 101.852C448.507 100.853 447.007 100.353 444.864 100.353C443.579 100.353 442.364 100.531 441.221 100.888C440.079 101.245 438.757 101.817 437.257 102.602C435.757 103.388 433.936 104.46 431.793 105.817L430.936 97.0311C434.364 93.674 437.721 91.174 441.007 89.5311C444.364 87.8169 447.936 86.9597 451.721 86.9597ZM397.293 88.3526L398.9 98.8525L400.507 100.245V141.281H384.65V88.3526H397.293ZM418.722 86.9597C423.436 86.9597 427.007 88.2097 429.436 90.7097C431.936 93.1383 433.186 96.7811 433.186 101.638V141.281H417.972V106.567C417.972 104.281 417.472 102.674 416.472 101.745C415.543 100.817 414.079 100.353 412.079 100.353C410.864 100.353 409.65 100.531 408.436 100.888C407.293 101.174 405.936 101.71 404.364 102.495C402.864 103.281 401.007 104.388 398.793 105.817L397.829 97.0311C401.329 93.674 404.722 91.174 408.007 89.5311C411.293 87.8169 414.864 86.9597 418.722 86.9597Z" fill="black"/>
<path d="M351.51 86.9597C355.938 86.9597 359.688 87.5669 362.76 88.7811C365.831 89.924 368.153 91.924 369.724 94.7811C371.367 97.5668 372.188 101.424 372.188 106.352V141.281H359.546L357.296 129.817L356.224 128.21V106.245C356.224 103.745 355.617 101.924 354.403 100.781C353.26 99.6382 351.046 99.0668 347.76 99.0668C345.046 99.0668 341.653 99.1739 337.581 99.3882C333.51 99.5311 329.331 99.7454 325.046 100.031L323.546 89.5311C326.117 89.0311 329.081 88.6026 332.439 88.2454C335.796 87.8883 339.153 87.6026 342.51 87.3883C345.867 87.1026 348.867 86.9597 351.51 86.9597ZM365.653 108.71L365.546 117.602L341.974 117.71C340.046 117.71 338.653 118.174 337.796 119.102C337.01 120.031 336.617 121.281 336.617 122.852V125.424C336.617 127.21 337.117 128.602 338.117 129.602C339.117 130.531 340.724 130.995 342.939 130.995C344.796 130.995 346.796 130.602 348.939 129.817C351.153 129.031 353.331 127.924 355.474 126.495C357.617 125.067 359.51 123.388 361.153 121.46V128.317C360.51 129.388 359.546 130.745 358.26 132.388C357.046 133.959 355.474 135.531 353.546 137.102C351.617 138.602 349.367 139.888 346.796 140.959C344.224 142.031 341.296 142.567 338.01 142.567C334.796 142.567 331.903 141.995 329.331 140.852C326.76 139.709 324.724 138.031 323.224 135.817C321.724 133.602 320.974 130.852 320.974 127.567V122.102C320.974 117.888 322.403 114.602 325.26 112.245C328.117 109.888 332.046 108.71 337.046 108.71H365.653Z" fill="black"/>
<path d="M288.14 86.9597C297.069 86.9597 303.462 88.4954 307.319 91.5668C311.247 94.5668 313.212 99.0668 313.212 105.067C313.283 109.924 312.069 113.567 309.569 115.995C307.069 118.352 302.747 119.531 296.605 119.531H267.033V110.638H292.212C294.64 110.638 296.176 110.138 296.819 109.138C297.533 108.067 297.89 106.602 297.89 104.745C297.819 102.245 297.069 100.531 295.64 99.6025C294.283 98.6025 291.962 98.1025 288.676 98.1025C285.748 98.1025 283.462 98.4954 281.819 99.2811C280.176 100.067 279.033 101.567 278.39 103.781C277.748 105.995 277.426 109.21 277.426 113.424C277.426 117.852 277.819 121.281 278.605 123.71C279.39 126.067 280.712 127.71 282.569 128.638C284.498 129.567 287.14 130.031 290.498 130.031C292.926 130.031 295.926 129.96 299.497 129.817C303.14 129.602 306.783 129.281 310.426 128.852L311.926 138.602C309.855 139.602 307.497 140.388 304.855 140.959C302.212 141.531 299.497 141.924 296.712 142.138C293.926 142.424 291.248 142.567 288.676 142.567C281.962 142.567 276.533 141.602 272.39 139.674C268.319 137.674 265.355 134.638 263.498 130.567C261.712 126.495 260.819 121.281 260.819 114.924C260.819 107.995 261.748 102.495 263.605 98.4239C265.462 94.3525 268.39 91.424 272.39 89.6383C276.39 87.8526 281.64 86.9597 288.14 86.9597Z" fill="black"/>
<path d="M230.611 88.3526L232.539 98.8525L234.039 100.245V141.281H218.182V88.3526H230.611ZM256.432 86.9597L254.932 101.638H250.539C248.039 101.638 245.432 101.995 242.718 102.71C240.004 103.424 236.575 104.495 232.432 105.924L231.361 97.0311C235.075 93.7454 238.825 91.2454 242.611 89.5311C246.396 87.8169 250.075 86.9597 253.646 86.9597H256.432Z" fill="black"/>
<path d="M194.916 73.6742V124.353C194.916 126.281 195.344 127.674 196.201 128.531C197.13 129.317 198.63 129.71 200.701 129.71H207.558L209.273 140.424C207.987 140.852 206.416 141.21 204.558 141.495C202.701 141.852 200.844 142.102 198.987 142.245C197.13 142.46 195.558 142.567 194.273 142.567C189.487 142.567 185.737 141.281 183.023 138.71C180.38 136.138 179.059 132.531 179.059 127.888L178.951 73.6742H194.916ZM209.701 88.3527V98.7455H169.737V88.8884L180.023 88.3527H209.701Z" fill="black"/>
<path d="M137.165 65.9601C140.808 65.9601 144.772 66.1744 149.058 66.6029C153.344 66.9601 157.522 67.7458 161.593 68.9601L160.522 79.7814C157.379 79.71 153.701 79.6386 149.486 79.5672C145.272 79.4957 141.129 79.46 137.058 79.46C135.058 79.46 133.344 79.5314 131.915 79.6743C130.558 79.7457 129.451 80.0314 128.594 80.5314C127.737 80.96 127.129 81.6386 126.772 82.5671C126.415 83.4957 126.237 84.7814 126.237 86.4243C126.237 88.9242 126.808 90.7457 127.951 91.8885C129.165 93.0314 131.201 94.0671 134.058 94.9957L148.308 99.6028C154.236 101.603 158.343 104.317 160.629 107.746C162.915 111.174 164.058 115.674 164.058 121.246C164.058 125.46 163.558 128.96 162.558 131.745C161.558 134.531 159.986 136.71 157.843 138.281C155.701 139.853 152.879 140.96 149.379 141.603C145.879 142.317 141.594 142.674 136.522 142.674C134.094 142.674 130.629 142.495 126.129 142.138C121.629 141.853 116.487 141.067 110.701 139.781L111.772 128.21C115.987 128.281 119.629 128.388 122.701 128.531C125.844 128.603 128.522 128.674 130.736 128.745C132.951 128.745 134.879 128.745 136.522 128.745C139.379 128.745 141.594 128.567 143.165 128.21C144.808 127.853 145.951 127.138 146.594 126.067C147.236 124.995 147.558 123.46 147.558 121.46C147.558 119.746 147.308 118.388 146.808 117.388C146.379 116.317 145.629 115.496 144.558 114.924C143.558 114.281 142.165 113.71 140.379 113.21L125.379 108.067C119.737 105.996 115.737 103.281 113.379 99.9242C111.022 96.5671 109.844 92.1385 109.844 86.6385C109.844 82.3529 110.344 78.8886 111.344 76.2457C112.415 73.5315 114.022 71.4243 116.165 69.9243C118.379 68.4244 121.201 67.3886 124.629 66.8172C128.129 66.2458 132.308 65.9601 137.165 65.9601Z" fill="black"/>
<defs>
<linearGradient id="paint0_linear_244_13" x1="32" y1="98.3645" x2="59" y2="98.3645" gradientUnits="userSpaceOnUse">
<stop stop-color="#FF0F7B"/>
<stop offset="1" stop-color="#F89B29"/>
</linearGradient>
<linearGradient id="paint1_linear_244_13" x1="0" y1="94.8645" x2="25" y2="94.8645" gradientUnits="userSpaceOnUse">
<stop stop-color="#FF0F7B"/>
<stop offset="1" stop-color="#F89B29"/>
</linearGradient>
<linearGradient id="paint2_linear_244_13" x1="66" y1="90.3645" x2="91" y2="90.3645" gradientUnits="userSpaceOnUse">
<stop stop-color="#FF0F7B"/>
<stop offset="1" stop-color="#F89B29"/>
</linearGradient>
<linearGradient id="paint3_linear_244_13" x1="7.06982" y1="25.4637" x2="82.7022" y2="25.4637" gradientUnits="userSpaceOnUse">
<stop stop-color="#FF0F7B"/>
<stop offset="1" stop-color="#F89B29"/>
</linearGradient>
</defs>
</svg>
